<svg width="54" height="53" viewBox="0 0 54 53" fill="none" xmlns="http://www.w3.org/2000/svg">
<path d="M14.0505 47.1809H13.467C11.3504 47.1809 10.2933 47.1809 9.63566 46.5346C8.97803 45.8926 8.97803 44.8514 8.97803 42.7712V40.3182C8.97803 39.1755 8.97803 38.6042 9.27654 38.0924C9.57506 37.5828 10.0262 37.3247 10.9285 36.8085C16.8674 33.4136 25.2999 31.5032 30.9268 34.8011C31.3039 35.0239 31.645 35.293 31.9368 35.6129C32.2382 35.9376 32.4704 36.3183 32.6197 36.7327C32.769 37.147 32.8323 37.5865 32.806 38.0253C32.7796 38.4641 32.6641 38.8932 32.4662 39.2874C32.2684 39.6816 31.9922 40.0328 31.654 40.3204C31.3842 40.5724 31.0549 40.7543 30.6956 40.8498C30.9649 40.8189 31.2231 40.7837 31.4699 40.7462C33.5147 40.4263 35.2317 39.3498 36.8028 38.1828L40.8608 35.1717C41.5848 34.6542 42.457 34.3754 43.3522 34.3754C44.2474 34.3754 45.1196 34.6542 45.8436 35.1717C47.1297 36.1269 47.5247 37.6997 46.71 38.9836C45.7605 40.4792 44.4228 42.3918 43.139 43.5609C41.8529 44.7301 39.9384 45.7757 38.3762 46.5169C36.6435 47.3397 34.7312 47.8118 32.7852 48.1229C28.8394 48.7493 24.7275 48.6523 20.8221 47.8626C18.594 47.4123 16.3253 47.1824 14.0505 47.1809ZM14.7822 5.7046C13.9585 6.51418 13.651 7.63039 13.5366 9.3753C14.8523 9.3576 16.109 8.83589 17.0392 7.92123C17.9694 7.00658 18.4996 5.7712 18.5171 4.47809C16.7439 4.5928 15.606 4.89501 14.7822 5.7046ZM39.0855 5.7046C38.2617 4.89501 37.126 4.5928 35.3506 4.48029C35.3687 5.7734 35.8995 7.00854 36.8301 7.92278C37.7607 8.83703 39.0177 9.35818 40.3334 9.3753C40.2167 7.6326 39.9092 6.51418 39.0855 5.7046ZM39.0855 20.7668C38.2617 21.5764 37.126 21.8786 35.3506 21.9911C35.3687 20.698 35.8995 19.4629 36.8301 18.5487C37.7607 17.6344 39.0177 17.1133 40.3334 17.0961C40.2167 18.8388 39.9092 19.9573 39.0855 20.7668ZM14.7822 20.7668C15.606 21.5764 16.7417 21.8786 18.5171 21.9911C18.499 20.698 17.9682 19.4629 17.0376 18.5487C16.107 17.6344 14.85 17.1133 13.5343 17.0961C13.651 18.8388 13.9585 19.9573 14.7822 20.7668Z" fill="#A338FF"/>
<path fill-rule="evenodd" clip-rule="evenodd" d="M13.4668 12.6842C15.6991 12.6842 17.8399 11.8127 19.4184 10.2613C20.9968 8.70996 21.8836 6.60587 21.8836 4.41191H31.9837C31.9837 6.60587 32.8705 8.70996 34.449 10.2613C36.0274 11.8127 38.1683 12.6842 40.4005 12.6842V13.7872C38.1683 13.7872 36.0274 14.6588 34.449 16.2101C32.8705 17.7615 31.9837 19.8656 31.9837 22.0595H21.8836C21.8836 19.8656 20.9968 17.7615 19.4184 16.2101C17.8399 14.6588 15.6991 13.7872 13.4668 13.7872V12.6842ZM26.9337 15.4417C27.5289 15.4417 28.0998 15.2093 28.5207 14.7956C28.9417 14.3819 29.1781 13.8208 29.1781 13.2357C29.1781 12.6507 28.9417 12.0896 28.5207 11.6759C28.0998 11.2622 27.5289 11.0298 26.9337 11.0298C26.3384 11.0298 25.7675 11.2622 25.3466 11.6759C24.9257 12.0896 24.6892 12.6507 24.6892 13.2357C24.6892 13.8208 24.9257 14.3819 25.3466 14.7956C25.7675 15.2093 26.3384 15.4417 26.9337 15.4417Z" fill="#A338FF"/>
</svg>
