<svg width="44" height="32" viewBox="0 0 44 32" fill="none" xmlns="http://www.w3.org/2000/svg">
<path d="M0 3.89286C0 1.744 1.73749 0 3.87833 0H33.3536C35.4944 0 37.2319 1.744 37.2319 3.89286V21.0214C37.2319 23.1703 35.4944 24.9143 33.3536 24.9143H3.87833C1.73749 24.9143 0 23.1703 0 21.0214V3.89286ZM9.30798 4.67143V3.11429H6.20532V4.67143C6.20532 5.08441 6.04188 5.48047 5.75095 5.77249C5.46002 6.06452 5.06543 6.22857 4.65399 6.22857H3.10266V9.34286H4.65399C5.88831 9.34286 7.07207 8.85069 7.94486 7.97463C8.81765 7.09857 9.30798 5.91037 9.30798 4.67143ZM24.8213 12.4571C24.8213 10.8052 24.1675 9.22096 23.0038 8.05288C21.8401 6.88479 20.2617 6.22857 18.616 6.22857C16.9702 6.22857 15.3919 6.88479 14.2281 8.05288C13.0644 9.22096 12.4106 10.8052 12.4106 12.4571C12.4106 14.1091 13.0644 15.6933 14.2281 16.8614C15.3919 18.0295 16.9702 18.6857 18.616 18.6857C20.2617 18.6857 21.8401 18.0295 23.0038 16.8614C24.1675 15.6933 24.8213 14.1091 24.8213 12.4571ZM31.0266 3.11429H27.9239V4.67143C27.9239 5.91037 28.4143 7.09857 29.2871 7.97463C30.1599 8.85069 31.3436 9.34286 32.5779 9.34286H34.1293V6.22857H32.5779C32.1665 6.22857 31.7719 6.06452 31.481 5.77249C31.1901 5.48047 31.0266 5.08441 31.0266 4.67143V3.11429ZM9.30798 20.2429C9.30798 19.0039 8.81765 17.8157 7.94486 16.9397C7.07207 16.0636 5.88831 15.5714 4.65399 15.5714H3.10266V18.6857H4.65399C5.06543 18.6857 5.46002 18.8498 5.75095 19.1418C6.04188 19.4338 6.20532 19.8299 6.20532 20.2429V21.8H9.30798V20.2429ZM31.0266 21.8V20.2429C31.0266 19.8299 31.1901 19.4338 31.481 19.1418C31.7719 18.8498 32.1665 18.6857 32.5779 18.6857H34.1293V15.5714H32.5779C31.3436 15.5714 30.1599 16.0636 29.2871 16.9397C28.4143 17.8157 27.9239 19.0039 27.9239 20.2429V21.8H31.0266ZM10.8593 31.1429C9.87645 31.1432 8.9187 30.8313 8.12334 30.2517C7.32798 29.6721 6.73585 28.8546 6.43182 27.9165C6.86309 27.9912 7.30366 28.0286 7.75665 28.0286H33.3536C35.2051 28.0286 36.9807 27.2903 38.2899 25.9762C39.5991 24.6621 40.3346 22.8798 40.3346 21.0214V6.49329C41.2424 6.81543 42.0282 7.41226 42.5839 8.2015C43.1396 8.99074 43.4378 9.93356 43.4373 10.9V21.0214C43.4373 22.3506 43.1764 23.6667 42.6697 24.8947C42.1629 26.1227 41.4202 27.2385 40.4838 28.1784C39.5475 29.1182 38.4359 29.8638 37.2124 30.3724C35.989 30.8811 34.6778 31.1429 33.3536 31.1429H10.8593Z" fill="#A338FF"/>
</svg>
