<svg width="8" height="25" viewBox="0 0 8 25" fill="none" xmlns="http://www.w3.org/2000/svg">
<path d="M1.33329 3.45833C1.33329 4.88507 2.5272 6.04167 3.99996 6.04167C5.47272 6.04167 6.66663 4.88507 6.66663 3.45833C6.66663 2.0316 5.47272 0.875 3.99996 0.875C2.5272 0.875 1.33329 2.0316 1.33329 3.45833Z" stroke="#9C4CFD"/>
<path opacity="0.5" d="M1.33329 12.5C1.33329 13.9268 2.5272 15.0834 3.99996 15.0834C5.47272 15.0834 6.66663 13.9268 6.66663 12.5C6.66663 11.0733 5.47272 9.91669 3.99996 9.91669C2.5272 9.91669 1.33329 11.0733 1.33329 12.5Z" stroke="#9C4CFD"/>
<path d="M1.33329 21.5416C1.33329 22.9684 2.5272 24.125 3.99996 24.125C5.47272 24.125 6.66663 22.9684 6.66663 21.5416C6.66663 20.1149 5.47272 18.9583 3.99996 18.9583C2.5272 18.9583 1.33329 20.1149 1.33329 21.5416Z" stroke="#9C4CFD"/>
</svg>
