<svg width="35" height="35" viewBox="0 0 35 35" fill="none" xmlns="http://www.w3.org/2000/svg">
<path d="M5.46875 15.3125C5.17867 15.3125 4.90047 15.1973 4.69535 14.9921C4.49023 14.787 4.375 14.5088 4.375 14.2187V5.47093C4.375 5.18085 4.49023 4.90265 4.69535 4.69753C4.90047 4.49242 5.17867 4.37718 5.46875 4.37718H14.2188C14.5088 4.37718 14.787 4.49242 14.9921 4.69753C15.1973 4.90265 15.3125 5.18085 15.3125 5.47093V14.2187C15.3125 14.5088 15.1973 14.787 14.9921 14.9921C14.787 15.1973 14.5088 15.3125 14.2188 15.3125H5.46875ZM20.7812 15.3125C20.4912 15.3125 20.213 15.1973 20.0079 14.9921C19.8027 14.787 19.6875 14.5088 19.6875 14.2187V5.47093C19.6875 5.18085 19.8027 4.90265 20.0079 4.69753C20.213 4.49242 20.4912 4.37718 20.7812 4.37718H29.5291C29.8191 4.37718 30.0973 4.49242 30.3025 4.69753C30.5076 4.90265 30.6228 5.18085 30.6228 5.47093V14.2187C30.6228 14.5088 30.5076 14.787 30.3025 14.9921C30.0973 15.1973 29.8191 15.3125 29.5291 15.3125H20.7812ZM5.46875 30.625C5.17867 30.625 4.90047 30.5098 4.69535 30.3046C4.49023 30.0995 4.375 29.8213 4.375 29.5312V20.7812C4.375 20.4912 4.49023 20.213 4.69535 20.0078C4.90047 19.8027 5.17867 19.6875 5.46875 19.6875H14.2188C14.5088 19.6875 14.787 19.8027 14.9921 20.0078C15.1973 20.213 15.3125 20.4912 15.3125 20.7812V29.5312C15.3125 29.8213 15.1973 30.0995 14.9921 30.3046C14.787 30.5098 14.5088 30.625 14.2188 30.625H5.46875ZM20.7812 30.625C20.4912 30.625 20.213 30.5098 20.0079 30.3046C19.8027 30.0995 19.6875 29.8213 19.6875 29.5312V20.7812C19.6875 20.4912 19.8027 20.213 20.0079 20.0078C20.213 19.8027 20.4912 19.6875 20.7812 19.6875H29.5291C29.8191 19.6875 30.0973 19.8027 30.3025 20.0078C30.5076 20.213 30.6228 20.4912 30.6228 20.7812V29.5312C30.6228 29.8213 30.5076 30.0995 30.3025 30.3046C30.0973 30.5098 29.8191 30.625 29.5291 30.625H20.7812Z" fill="#BAB0B0"/>
</svg>
