<?xml version="1.0" standalone="no"?>
<!DOCTYPE svg PUBLIC "-//W3C//DTD SVG 20010904//EN"
 "http://www.w3.org/TR/2001/REC-SVG-20010904/DTD/svg10.dtd">
<svg version="1.0" xmlns="http://www.w3.org/2000/svg"
 width="920.000000pt" height="800.000000pt" viewBox="0 0 920.000000 800.000000"
 preserveAspectRatio="xMidYMid meet">

<g transform="translate(0.000000,800.000000) scale(0.100000,-0.100000)"
fill="#000000" stroke="none">
<path d="M4195 7994 c-1294 -71 -2411 -552 -2875 -1239 -162 -240 -227 -460
-217 -738 3 -88 1 -150 -5 -153 -16 -10 -112 -145 -157 -220 -210 -356 -226
-765 -44 -1129 292 -581 1031 -1047 2023 -1275 259 -59 601 -110 845 -125 55
-4 116 -8 135 -10 56 -6 563 -6 664 0 996 62 1862 345 2451 804 104 81 303
284 372 381 107 150 182 307 223 465 l18 70 7 -49 c12 -78 -2 -292 -24 -382
-42 -168 -135 -358 -250 -509 -25 -33 -88 -105 -141 -159 -517 -537 -1465
-903 -2560 -987 -200 -15 -695 -15 -875 0 -711 61 -1290 205 -1794 447 -85 41
-155 73 -157 71 -6 -5 163 -193 229 -254 792 -738 2351 -1093 3837 -874 1246
184 2217 764 2474 1479 60 167 82 395 56 559 -50 304 -240 617 -528 869 l-85
74 -34 -56 c-99 -165 -286 -366 -473 -509 -530 -405 -1310 -676 -2205 -765
-179 -18 -737 -24 -945 -11 -1245 82 -2297 526 -2790 1179 -176 234 -271 500
-269 752 0 70 15 188 18 146 2 -35 70 -224 106 -298 95 -190 292 -425 490
-585 292 -236 700 -445 1135 -582 1301 -410 2894 -311 3992 246 405 205 711
456 902 736 70 104 161 297 192 407 38 140 45 363 14 510 -106 517 -579 991
-1310 1312 -453 199 -976 326 -1600 388 -107 11 -718 21 -845 14z m-565 -799
c73 -69 136 -125 141 -125 4 0 48 9 96 21 197 45 347 62 578 62 298 0 470 -31
626 -115 75 -39 170 -124 149 -132 -8 -3 -128 -43 -266 -89 l-251 -83 -57 44
c-120 92 -241 106 -451 52 -66 -17 -123 -34 -126 -38 -6 -6 137 -145 447 -435
l83 -78 203 20 c557 56 828 50 1086 -25 220 -64 389 -186 458 -331 22 -48 26
-66 22 -133 -2 -63 -9 -88 -38 -145 -68 -135 -252 -288 -476 -396 -56 -27
-107 -49 -113 -49 -21 0 -11 -17 33 -56 68 -60 228 -216 224 -218 -14 -10
-410 -137 -417 -134 -6 1 -52 44 -103 93 -52 50 -112 107 -135 128 l-41 39
-110 -36 c-451 -146 -1004 -137 -1289 20 -61 34 -173 128 -163 137 3 2 121 43
263 90 l258 86 49 -35 c79 -56 146 -75 269 -75 115 0 203 15 339 57 48 15 88
28 90 29 10 7 -598 575 -615 575 -10 0 -88 -9 -173 -19 -390 -49 -792 -53
-991 -12 -122 25 -257 71 -328 113 -76 45 -202 171 -232 233 -35 73 -33 170 5
244 70 135 288 287 596 416 36 15 67 29 69 31 3 3 -174 176 -234 227 -16 14
-28 28 -25 31 7 7 392 135 407 136 6 0 71 -56 143 -125z"/>
<path d="M3528 6610 c-114 -46 -190 -92 -235 -144 -68 -76 -30 -175 92 -242
118 -66 243 -77 525 -49 85 9 165 18 177 21 19 4 7 19 -95 117 -205 198 -354
337 -360 337 -4 -1 -51 -18 -104 -40z"/>
<path d="M5061 5994 c-69 -7 -129 -15 -134 -17 -8 -2 435 -429 489 -470 23
-18 25 -18 120 27 174 83 244 151 244 237 0 56 -32 103 -105 154 -84 60 -157
78 -335 81 -87 1 -209 -4 -279 -12z"/>
<path d="M1276 3587 c-119 -203 -176 -404 -176 -617 0 -183 37 -336 124 -515
77 -157 161 -270 321 -430 198 -199 376 -328 658 -475 1230 -643 3092 -693
4433 -119 492 210 890 511 1109 839 67 99 162 287 151 298 -4 3 -21 -8 -39
-24 -57 -53 -119 -99 -237 -177 -547 -358 -1274 -584 -2125 -659 -183 -16
-759 -16 -950 0 -698 60 -1320 223 -1830 481 -598 304 -985 709 -1110 1163
-15 53 -21 61 -83 105 -37 26 -102 76 -144 110 l-78 62 -24 -42z"/>
<path d="M1132 2218 c-42 -171 -41 -397 3 -563 31 -118 120 -306 198 -420 71
-102 225 -268 344 -370 321 -273 769 -499 1293 -650 779 -224 1660 -275 2505
-144 678 105 1331 350 1765 663 373 268 613 587 701 931 31 121 34 387 6 509
-11 43 -22 74 -26 70 -4 -5 -19 -40 -34 -79 -113 -293 -374 -591 -722 -822
-466 -310 -1095 -530 -1790 -628 -231 -32 -420 -46 -710 -52 -320 -6 -528 4
-820 38 -1158 135 -2106 594 -2530 1224 -52 78 -126 227 -146 293 -7 23 -15
42 -19 42 -4 0 -12 -19 -18 -42z"/>
</g>
</svg>
