<svg width="17" height="16" viewBox="0 0 17 16" fill="none" xmlns="http://www.w3.org/2000/svg">
<path d="M8.2365 0.0658401C8.31675 0.022694 8.40758 0 8.5 0C8.59242 0 8.68325 0.022694 8.7635 0.0658401L12.7479 2.20888C12.8292 2.2526 12.8968 2.31576 12.9438 2.39198C12.9908 2.4682 13.0156 2.55476 13.0156 2.64289V6.63797L16.7323 8.63801C16.8132 8.68156 16.8806 8.74441 16.9276 8.82025C16.9746 8.89608 16.9996 8.98223 17 9.07002V13.3561C17 13.4442 16.9752 13.5308 16.9282 13.607C16.8811 13.6832 16.8136 13.7464 16.7323 13.7901L12.7479 15.9332C12.6676 15.9763 12.5768 15.999 12.4844 15.999C12.392 15.999 12.3011 15.9763 12.2209 15.9332L8.5 13.9331L4.77913 15.9342C4.69887 15.9773 4.60805 16 4.51562 16C4.4232 16 4.33238 15.9773 4.25212 15.9342L0.26775 13.7911C0.18644 13.7474 0.118851 13.6842 0.0718308 13.608C0.0248107 13.5318 3.02037e-05 13.4452 0 13.3571L0 9.07102C3.02037e-05 8.98289 0.0248107 8.89633 0.0718308 8.82011C0.118851 8.74389 0.18644 8.68073 0.26775 8.63701L3.98438 6.63797V2.64289C3.98441 2.55476 4.00919 2.4682 4.05621 2.39198C4.10323 2.31576 4.17081 2.2526 4.25212 2.20888L8.2365 0.0658401ZM4.51562 7.50399L1.60225 9.07102L4.51562 10.6381L7.429 9.07102L4.51562 7.50399ZM7.96875 9.93304L5.04688 11.5041V14.6381L7.96875 13.0671V9.93304ZM9.03125 13.0671L11.9531 14.6381V11.5041L9.03125 9.93304V13.0671ZM9.571 9.07102L12.4844 10.6381L15.3977 9.07102L12.4844 7.50399L9.571 9.07102ZM11.9531 6.63797V3.50391L9.03125 5.07594V8.21L11.9531 6.63797ZM7.96875 8.21V5.07594L5.04688 3.50391V6.63797L7.96875 8.21ZM5.58662 2.64289L8.5 4.20992L11.4134 2.64289L8.5 1.07586L5.58662 2.64289ZM15.9375 9.93304L13.0156 11.5041V14.6381L15.9375 13.0671V9.93304ZM3.98438 14.6381V11.5041L1.0625 9.93304V13.0671L3.98438 14.6381Z" fill="#03BBE2"/>
</svg>
