<svg width="13" height="15" viewBox="0 0 13 15" fill="none" xmlns="http://www.w3.org/2000/svg">
<path d="M0 14.2197L0.9375 13.1532L1.875 14.2197L2.8125 13.1532L3.75 14.2197L4.7375 13.0963C4.825 13.2314 4.925 13.3523 5.03125 13.4731C5.8512 14.3919 6.95637 14.9063 8.10733 14.9046C9.25828 14.903 10.3623 14.3856 11.1803 13.4645C11.9982 12.5433 12.4642 11.2927 12.4773 9.98348C12.4903 8.67427 12.0494 7.41193 11.25 6.46994V0L10.3125 1.06647L9.375 0L8.4375 1.06647L7.5 0L6.5625 1.06647L5.625 0L4.6875 1.06647L3.75 0L2.8125 1.06647L1.875 0L0.9375 1.06647L0 0V14.2197ZM11.1563 9.95376C11.1563 10.4088 11.0813 10.8567 10.9375 11.2762C10.775 11.6886 10.55 12.0867 10.2688 12.3924C10 12.7124 9.65 12.9683 9.2875 13.1532C8.91875 13.3167 8.525 13.402 8.125 13.402C6.45 13.402 5.09375 11.8592 5.09375 9.95376C5.09375 9.03659 5.4125 8.1763 5.98125 7.51509C6.5625 6.86809 7.31875 6.50549 8.125 6.50549C9.79375 6.50549 11.1563 8.04832 11.1563 9.95376ZM7.5 10.4443V7.82081H8.4375V9.82578L9.9625 10.8283L9.49375 11.7525L7.5 10.4443Z" fill="#FF64EF"/>
</svg>
